<svg width="79" height="70" viewBox="0 0 79 70" fill="none" xmlns="http://www.w3.org/2000/svg">
<rect x="20.0975" y="11.5974" width="47.4233" height="47.4233" transform="rotate(13.7462 20.0975 11.5974)" fill="white"/>
<path d="M30.0234 29.1052C30.4593 31.9872 30.2666 34.5031 29.4453 36.653C28.6228 38.7944 27.3364 40.5189 25.5861 41.8266C23.8346 43.1259 21.7875 43.9527 19.4448 44.307C17.0853 44.6639 14.8762 44.4765 12.8175 43.7449C10.766 43.0036 9.03067 41.7318 7.61165 39.9294C6.19979 38.1173 5.27718 35.7787 4.84383 32.9136C4.40794 30.0316 4.59704 27.5205 5.41115 25.3804C6.23241 23.2305 7.51459 21.5066 9.25769 20.2086C11.0079 18.9009 13.0628 18.0686 15.4224 17.7118C17.765 17.3574 19.9657 17.5461 22.0244 18.2777C24.0818 19.0009 25.8207 20.2679 27.241 22.0787C28.66 23.881 29.5875 26.2232 30.0234 29.1052ZM22.7931 30.1988C22.5586 28.6482 22.1546 27.3733 21.5811 26.374C21.0147 25.3649 20.2898 24.6471 19.4064 24.2204C18.5302 23.784 17.5106 23.6538 16.3477 23.8297C15.1848 24.0056 14.2451 24.4321 13.5287 25.1094C12.8194 25.777 12.3392 26.6771 12.0882 27.8097C11.8443 28.9327 11.8396 30.2695 12.0741 31.82C12.3086 33.3706 12.7091 34.6503 13.2754 35.6594C13.8489 36.6587 14.5738 37.3766 15.4501 37.8129C16.3335 38.2396 17.3566 38.365 18.5195 38.1891C19.6824 38.0132 20.6185 37.5915 21.3278 36.9239C22.0442 36.2467 22.5244 35.3466 22.7683 34.2236C23.0194 33.0909 23.0276 31.7493 22.7931 30.1988ZM35.2328 41.5571L31.3174 15.6697L38.3454 14.6067L39.9284 25.0729L40.2823 25.0194L46.4858 13.3755L54.6767 12.1367L47.6732 24.9876L58.7944 37.9935L50.4012 39.2629L43.1184 30.4346L41.2514 33.82L42.2608 40.4941L35.2328 41.5571ZM67.0188 33.1293L67.1318 34.5603C67.2311 35.7865 67.2047 36.98 67.0527 38.1408C66.9092 39.3003 66.7254 40.3366 66.5015 41.2497C66.286 42.1615 66.1128 42.8686 65.982 43.3711L61.6843 44.0211C61.7477 43.5288 61.8341 42.8176 61.9434 41.8874C62.0623 40.9643 62.1382 39.9271 62.1709 38.7757C62.2133 37.6315 62.1479 36.4864 61.9746 35.3403L61.7604 33.9246L67.0188 33.1293Z" fill="#213CEB"/>
<path d="M28.6612 64.2094L27.9925 59.5984L28.4981 59.522L30.5624 55.5033L34.9163 54.8448L31.3883 61.1535L30.2928 61.3192L28.6612 64.2094ZM25.5647 67.2923L23.3894 52.9105L27.2658 52.3242L29.441 66.706L25.5647 67.2923ZM32.2219 66.2854L29.1043 62.3897L31.216 59.2545L36.6601 65.6142L32.2219 66.2854ZM37.5572 65.4785L35.9258 54.6921L39.8021 54.1058L41.4336 64.8922L37.5572 65.4785ZM37.694 53.2754C37.1697 53.3547 36.694 53.2494 36.2671 52.9596C35.8402 52.6698 35.5899 52.2815 35.5163 51.7946C35.4426 51.3077 35.5669 50.8627 35.889 50.4596C36.2111 50.0566 36.6344 49.8154 37.1587 49.7361C37.6877 49.6561 38.1634 49.7613 38.5856 50.0518C39.0125 50.3416 39.2628 50.7299 39.3364 51.2168C39.4101 51.7037 39.2858 52.1487 38.9637 52.5518C38.6463 52.9541 38.223 53.1953 37.694 53.2754ZM47.3343 64.1434C46.5665 64.2595 45.8292 64.1651 45.1222 63.8602C44.4199 63.5546 43.8125 63.0216 43.3001 62.261C42.7922 61.4998 42.4442 60.4966 42.2558 59.2513C42.059 57.9498 42.1003 56.8613 42.3797 55.9858C42.6638 55.1096 43.0978 54.4334 43.6818 53.9572C44.2706 53.4802 44.9207 53.188 45.6323 53.0803C46.166 52.9996 46.6483 53.0224 47.0793 53.1488C47.5095 53.2705 47.8838 53.4653 48.202 53.7332C48.5196 53.9964 48.7762 54.3 48.9719 54.6439L49.0281 54.6355L48.1996 49.158L52.076 48.5717L54.2512 62.9536L50.4029 63.5356L50.1353 61.766L50.051 61.7787C49.9564 62.1665 49.7906 62.5268 49.5536 62.8596C49.3206 63.1869 49.0179 63.465 48.6454 63.6937C48.277 63.917 47.8399 64.0669 47.3343 64.1434ZM48.3165 60.9492C48.6723 60.8954 48.9611 60.7464 49.1827 60.5022C49.4083 60.2525 49.5604 59.9279 49.6388 59.5281C49.7212 59.123 49.7227 58.6582 49.6434 58.1339C49.5627 57.6002 49.4234 57.1544 49.2256 56.7964C49.0318 56.433 48.7909 56.1702 48.503 56.0078C48.219 55.8401 47.8991 55.7831 47.5433 55.8369C47.1875 55.8907 46.8988 56.0397 46.6771 56.284C46.4595 56.5228 46.3118 56.8444 46.2341 57.2489C46.1603 57.6479 46.1638 58.1143 46.2445 58.648C46.3253 59.1817 46.4602 59.6306 46.6493 59.9946C46.8425 60.3533 47.0787 60.6169 47.358 60.7853C47.6412 60.9484 47.9607 61.003 48.3165 60.9492ZM64.9134 53.8993L61.346 54.4389C61.294 54.2217 61.1881 54.0437 61.0282 53.9051C60.8684 53.7665 60.6744 53.6713 60.4463 53.6196C60.2222 53.5625 59.9814 53.5534 59.7239 53.5924C59.3915 53.6427 59.1151 53.7467 58.8948 53.9045C58.6744 54.0624 58.5836 54.2533 58.6222 54.4773C58.6416 54.6372 58.7318 54.7744 58.8928 54.8889C59.0585 55.0027 59.353 55.0659 59.7763 55.0785L62.0267 55.1404C63.162 55.1746 64.035 55.3898 64.6456 55.7858C65.2602 56.1766 65.63 56.7695 65.7551 57.5647C65.8665 58.3331 65.738 59.035 65.3696 59.6701C65.0051 60.2999 64.4553 60.8284 63.7202 61.2556C62.9891 61.6775 62.125 61.9638 61.1278 62.1146C59.4799 62.3639 58.1391 62.2219 57.1055 61.6886C56.0766 61.1547 55.4247 60.3434 55.1499 59.2548L58.9982 58.6728C59.1014 59.0068 59.3099 59.2458 59.6238 59.3899C59.9417 59.5285 60.3207 59.5646 60.7608 59.498C61.1166 59.4442 61.4 59.3391 61.6109 59.1827C61.8266 59.0256 61.9198 58.8343 61.8905 58.6089C61.8547 58.4036 61.7269 58.2553 61.5072 58.164C61.2921 58.0721 60.9683 58.0205 60.5356 58.0093L58.5745 57.9611C57.4453 57.9356 56.5661 57.695 55.9369 57.2395C55.3078 56.784 54.9314 56.1321 54.808 55.2841C54.69 54.5357 54.7907 53.8716 55.11 53.2918C55.4333 52.7065 55.9466 52.2219 56.6499 51.8377C57.3572 51.4482 58.2235 51.1759 59.2488 51.0209C60.8077 50.7851 62.0855 50.9222 63.0821 51.4324C64.0834 51.9418 64.6938 52.7641 64.9134 53.8993ZM70.099 45.8457L71.2293 55.7885L68.0271 56.2729L66.1664 46.4405L70.099 45.8457ZM70.3419 60.7497C69.7988 60.8319 69.3044 60.7127 68.8584 60.3923C68.4165 60.0665 68.1564 59.6293 68.0782 59.0809C67.9928 58.5479 68.1134 58.0627 68.4399 57.6255C68.7712 57.1875 69.2083 56.9274 69.7514 56.8453C70.2664 56.7674 70.7491 56.8883 71.1998 57.2081C71.655 57.5271 71.9254 57.9531 72.0108 58.4861C72.0613 58.852 72.0156 59.1989 71.8737 59.5268C71.7357 59.8494 71.5327 60.1219 71.2647 60.3444C70.9959 60.5622 70.6884 60.6973 70.3419 60.7497Z" fill="#EB2D3E"/>
</svg>
