<svg width="74" height="66" viewBox="0 0 74 66" fill="none" xmlns="http://www.w3.org/2000/svg">
<rect x="15.7242" y="-2" width="57.7564" height="57.7564" rx="10" transform="rotate(13.7462 15.7242 -2)" fill="white"/>
<path d="M16.5497 36.0594C14.2241 36.4111 12.1295 36.3638 10.2658 35.9175C8.42582 35.4676 6.88796 34.6079 5.65222 33.3384C4.43662 32.0416 3.62164 30.3444 3.20729 28.2468C3.03641 27.2775 2.86842 26.247 2.70332 25.1554C2.53822 24.0638 2.39037 23.006 2.25976 21.9821C2.03884 19.8795 2.31724 18.029 3.09497 16.4307C3.8727 14.8325 5.08215 13.5208 6.72333 12.4959C8.36451 11.4709 10.3479 10.7826 12.6734 10.4308C14.999 10.0791 17.0972 10.1501 18.9681 10.6439C20.8389 11.1377 22.3822 12.0329 23.5978 13.3297C24.8371 14.6229 25.6503 16.3083 26.0373 18.3858C26.2391 19.399 26.4226 20.4514 26.5877 21.543C26.7528 22.6345 26.8852 23.6704 26.9849 24.6505C27.2094 26.7768 26.9209 28.641 26.1194 30.2428C25.3381 31.8174 24.1233 33.0934 22.4749 34.0709C20.8503 35.0448 18.8752 35.7076 16.5497 36.0594ZM15.4999 29.1183C16.2829 28.9999 16.8777 28.6793 17.2841 28.1567C17.6869 27.6103 17.8248 26.837 17.6978 25.8367C17.5909 24.8091 17.4621 23.797 17.3114 22.8003C17.1607 21.8037 16.988 20.8225 16.7934 19.8567C16.6691 19.1959 16.4561 18.6698 16.1542 18.2786C15.876 17.8837 15.5327 17.6201 15.1243 17.4877C14.7123 17.3315 14.2453 17.2929 13.7232 17.3719C13.2249 17.4473 12.7902 17.6222 12.4191 17.8968C12.0681 18.1441 11.8063 18.4992 11.6336 18.9623C11.4846 19.4217 11.4485 19.9855 11.5253 20.6535C11.6487 21.63 11.7858 22.6166 11.9365 23.6133C12.0873 24.6099 12.2517 25.6167 12.4297 26.6335C12.6279 27.623 12.9884 28.3209 13.511 28.7273C14.0538 29.1064 14.7168 29.2367 15.4999 29.1183ZM32.6271 33.2636C32.3661 33.3031 32.1263 33.2422 31.9077 33.0811C31.6892 32.92 31.5602 32.7089 31.5207 32.4479L28.0428 9.4534C28.0034 9.19237 28.0642 8.95258 28.2253 8.73402C28.3864 8.51547 28.5975 8.38645 28.8585 8.34697L35.6572 7.31869C35.9182 7.27921 36.158 7.34003 36.3766 7.50116C36.5952 7.66229 36.7242 7.87337 36.7636 8.1344L37.8296 15.1822L40.759 7.34806C40.8489 7.14028 40.9881 6.93718 41.1766 6.73877C41.3887 6.53676 41.6847 6.40705 42.0643 6.34962L49.9309 5.15983C50.1445 5.12753 50.335 5.18366 50.5025 5.32824C50.6901 5.4455 50.8001 5.61091 50.8324 5.82448C50.854 5.96686 50.8381 6.10276 50.7849 6.23218L46.0036 17.951L54.8032 28.708C54.8888 28.7921 54.9441 28.9173 54.9692 29.0834C55.0015 29.297 54.9472 29.4994 54.8062 29.6906C54.6854 29.8545 54.5181 29.9526 54.3046 29.9849L46.1889 31.2124C45.7143 31.2842 45.3422 31.2312 45.0726 31.0536C44.8231 30.8486 44.6675 30.7022 44.6057 30.6144L39.0894 23.5115L40.2415 31.1289C40.281 31.3899 40.2202 31.6297 40.059 31.8483C39.8979 32.0668 39.6868 32.1958 39.4258 32.2353L32.6271 33.2636ZM56.9809 32.3108C56.7673 32.3431 56.5649 32.2888 56.3737 32.1478C56.186 32.0306 56.0879 31.8634 56.0793 31.6462L56.0935 22.833C56.0907 22.4936 56.1865 22.1635 56.3807 21.8429C56.5951 21.4949 56.9395 21.285 57.4141 21.2133L63.1094 20.3519C63.3229 20.3196 63.5135 20.3757 63.681 20.5203C63.8686 20.6375 63.9786 20.8029 64.0109 21.0165C64.0253 21.1114 64.026 21.1963 64.013 21.2711L61.9343 30.3966C61.8753 30.6482 61.7469 30.9225 61.549 31.2194C61.3749 31.5128 61.0506 31.6953 60.576 31.7671L56.9809 32.3108Z" fill="#213CEB"/>
<path d="M22.8302 58.0069C22.6852 58.0289 22.552 57.9951 22.4306 57.9056C22.3092 57.816 22.2375 57.6988 22.2156 57.5538L20.2535 44.5813C20.2316 44.4363 20.2654 44.3031 20.3549 44.1816C20.4444 44.0602 20.5617 43.9885 20.7067 43.9666L24.1673 43.4432C24.3123 43.4213 24.4456 43.4551 24.567 43.5446C24.6884 43.6341 24.7601 43.7514 24.782 43.8964L25.7511 50.3035L27.0606 47.1927C27.079 47.136 27.1283 47.0611 27.2086 46.968C27.287 46.8618 27.4118 46.7957 27.5832 46.7698L31.5778 46.1656C31.7096 46.1457 31.8286 46.1749 31.9349 46.2532C32.0411 46.3315 32.1042 46.4366 32.1242 46.5684C32.1321 46.6212 32.1279 46.6825 32.1115 46.7524C32.1063 46.8071 32.0925 46.8496 32.0701 46.88L29.9442 51.1459L33.8925 55.5854C33.9572 55.6565 33.9965 55.7382 34.0105 55.8305C34.0304 55.9623 34.0012 56.0814 33.9229 56.1876C33.8446 56.2938 33.7395 56.3569 33.6077 56.3769L29.4549 57.005C29.2571 57.0349 29.1051 57.0107 28.9989 56.9323C28.8907 56.8408 28.8214 56.7839 28.791 56.7615L26.2655 53.7048L26.7441 56.8688C26.766 57.0138 26.7322 57.1471 26.6427 57.2685C26.5532 57.3899 26.4359 57.4616 26.2909 57.4835L22.8302 58.0069ZM35.5373 56.085C35.3923 56.107 35.259 56.0732 35.1376 55.9836C35.0162 55.8941 34.9445 55.7769 34.9226 55.6318L33.5288 46.4167C33.5069 46.2716 33.5407 46.1384 33.6302 46.017C33.7197 45.8956 33.837 45.8239 33.982 45.802L37.5217 45.2666C37.6668 45.2447 37.8 45.2784 37.9214 45.368C38.0428 45.4575 38.1145 45.5747 38.1364 45.7198L39.5302 54.935C39.5521 55.08 39.5183 55.2132 39.4288 55.3346C39.3393 55.456 39.222 55.5277 39.077 55.5496L35.5373 56.085ZM33.9164 44.6994C33.7714 44.7213 33.6381 44.6875 33.5167 44.598C33.3953 44.5085 33.3236 44.3912 33.3017 44.2462L32.9398 41.8534C32.9178 41.7084 32.9516 41.5752 33.0412 41.4538C33.1307 41.3324 33.2479 41.2607 33.393 41.2387L36.7349 40.7333C36.88 40.7113 37.0132 40.7451 37.1346 40.8346C37.256 40.9242 37.3277 41.0414 37.3496 41.1864L37.7115 43.5792C37.7335 43.7242 37.6997 43.8575 37.6102 43.9789C37.5206 44.1003 37.4034 44.172 37.2584 44.1939L33.9164 44.6994ZM45.3606 54.8015C44.7938 54.8873 44.2479 54.8889 43.723 54.8065C43.2093 54.7089 42.7343 54.511 42.2982 54.2129C41.8732 53.8996 41.5048 53.4699 41.193 52.9237C40.8811 52.3775 40.6426 51.6921 40.4774 50.8676C40.4184 50.5663 40.3719 50.3037 40.338 50.0795C40.3041 49.8554 40.2718 49.5974 40.2411 49.3053C40.1499 48.5235 40.1734 47.8322 40.3118 47.2314C40.4482 46.6175 40.673 46.098 40.9863 45.673C41.3128 45.2461 41.7126 44.9024 42.1856 44.6421C42.6587 44.3818 43.1787 44.2087 43.7455 44.123C44.2992 44.0392 44.8066 44.0502 45.2676 44.1557C45.7397 44.2461 46.1559 44.4124 46.5162 44.6546L45.918 40.6996C45.8961 40.5546 45.9299 40.4214 46.0194 40.2999C46.1089 40.1785 46.2262 40.1068 46.3712 40.0849L50.0296 39.5316C50.1746 39.5097 50.3078 39.5434 50.4292 39.633C50.5507 39.7225 50.6223 39.8397 50.6443 39.9848L52.6063 52.9572C52.6283 53.1022 52.5945 53.2355 52.5049 53.3569C52.4154 53.4783 52.2982 53.55 52.1531 53.5719L48.7914 54.0804C48.6464 54.1023 48.5131 54.0685 48.3917 53.979C48.2703 53.8895 48.1986 53.7722 48.1767 53.6272L48.1079 53.1724C47.8453 53.5762 47.4937 53.926 47.053 54.2219C46.6103 54.5046 46.0462 54.6978 45.3606 54.8015ZM46.4666 51.0135C46.7171 50.9757 46.9013 50.9006 47.0191 50.7884C47.1502 50.6742 47.2291 50.5274 47.256 50.348C47.2959 50.1667 47.3046 49.9563 47.2819 49.717C47.2624 49.4098 47.2387 49.1639 47.2108 48.9794C47.1809 48.7816 47.1308 48.5397 47.0606 48.2537C47.0155 48.0447 46.9424 47.8737 46.8414 47.7407C46.7535 47.6056 46.6311 47.5095 46.4741 47.4524C46.3303 47.3932 46.1464 47.3806 45.9223 47.4145C45.685 47.4504 45.5008 47.5254 45.3697 47.6396C45.2518 47.7519 45.1729 47.8986 45.1329 48.08C45.1061 48.2594 45.0974 48.4697 45.107 48.711C45.1332 49.152 45.199 49.5871 45.3044 50.0161C45.3666 50.2494 45.4371 50.4478 45.5157 50.6112C45.6076 50.7726 45.7264 50.8895 45.8722 50.9619C46.0312 51.0322 46.2293 51.0494 46.4666 51.0135ZM59.3245 52.6895C58.3753 52.8331 57.5506 52.8634 56.8503 52.7806C56.1612 52.6825 55.5838 52.5204 55.1181 52.2941C54.6635 52.0527 54.3134 51.7888 54.0678 51.5023C53.8202 51.2026 53.6699 50.9219 53.6168 50.6603C53.5817 50.5173 53.6023 50.386 53.6787 50.2666C53.7682 50.1452 53.8789 50.0745 54.0107 50.0546L57.4516 49.5341C57.4647 49.5321 57.4779 49.5302 57.4911 49.5282C57.5043 49.5262 57.5175 49.5242 57.5307 49.5222C57.704 49.5094 57.8646 49.5458 58.0124 49.6314C58.1714 49.7017 58.3303 49.7721 58.4893 49.8424C58.6615 49.9108 58.8464 49.93 59.0442 49.9001C59.1497 49.8841 59.2445 49.8428 59.3288 49.7761C59.4263 49.7074 59.4681 49.6269 59.4541 49.5347C59.4362 49.416 59.3807 49.3165 59.2876 49.2362C59.2078 49.1539 59.0158 49.0885 58.7118 49.0401C58.419 48.9765 57.9341 48.9352 57.257 48.9163C56.6326 48.8894 56.0246 48.7925 55.433 48.6258C54.8414 48.4591 54.3338 48.1785 53.91 47.7841C53.4994 47.3877 53.2423 46.8467 53.1386 46.1612C53.0529 45.5943 53.1623 45.0249 53.4669 44.4529C53.7714 43.8809 54.2679 43.3743 54.9563 42.9331C55.6579 42.4898 56.5492 42.1865 57.6303 42.0229C58.4477 41.8993 59.1867 41.8819 59.8474 41.9708C60.5081 42.0597 61.078 42.2162 61.5569 42.4404C62.049 42.6627 62.4386 42.9206 62.7258 43.2143C63.0129 43.508 63.184 43.7923 63.2391 44.0672C63.2742 44.2102 63.2536 44.3414 63.1772 44.4608C63.1009 44.5803 63.0034 44.6489 62.8848 44.6669L59.7603 45.1395C59.7339 45.1434 59.701 45.1484 59.6614 45.1544C59.6219 45.1604 59.5889 45.1654 59.5626 45.1694C59.378 45.1973 59.2062 45.1761 59.0472 45.1057C58.8863 45.0222 58.7263 44.9452 58.5673 44.8749C58.4064 44.7914 58.227 44.7645 58.0292 44.7945C57.937 44.8084 57.8497 44.8553 57.7673 44.9352C57.6962 44.9999 57.6676 45.0784 57.6816 45.1707C57.6975 45.2761 57.753 45.3756 57.8481 45.4691C57.9412 45.5494 58.1463 45.6128 58.4635 45.6592C58.7786 45.6925 59.287 45.71 59.9885 45.7118C60.9576 45.7 61.7525 45.8293 62.3733 46.0995C62.994 46.3697 63.4579 46.7176 63.765 47.1431C64.0852 47.5666 64.2793 48.0025 64.3471 48.4508C64.4528 49.1495 64.327 49.7888 63.9697 50.3688C63.6256 50.9467 63.0592 51.4369 62.2705 51.8394C61.493 52.2267 60.511 52.5101 59.3245 52.6895ZM65.9847 46.059C65.8397 46.0809 65.7064 46.0471 65.585 45.9576C65.4636 45.8681 65.3919 45.7508 65.37 45.6058L64.2394 38.1308C64.2175 37.9858 64.2513 37.8526 64.3408 37.7311C64.4303 37.6097 64.5476 37.5381 64.6926 37.5161L68.1335 36.9957C68.2785 36.9738 68.4117 37.0076 68.5331 37.0971C68.6545 37.1866 68.7262 37.3039 68.7481 37.4489L69.8787 44.9239C69.9007 45.0689 69.8669 45.2021 69.7773 45.3235C69.6878 45.4449 69.5706 45.5166 69.4255 45.5385L65.9847 46.059ZM66.7863 51.3587C66.6412 51.3806 66.508 51.3468 66.3866 51.2573C66.2652 51.1678 66.1935 51.0505 66.1716 50.9055L65.6511 47.4646C65.6292 47.3196 65.663 47.1864 65.7525 47.065C65.842 46.9436 65.9593 46.8719 66.1043 46.85L69.5452 46.3295C69.6902 46.3076 69.8234 46.3414 69.9448 46.4309C70.0663 46.5204 70.1379 46.6377 70.1599 46.7827L70.6803 50.2236C70.7022 50.3686 70.6684 50.5018 70.5789 50.6232C70.4894 50.7447 70.3721 50.8163 70.2271 50.8383L66.7863 51.3587Z" fill="#EB2D3E"/>
</svg>
